<svg width="393" height="112" viewBox="0 0 393 112" fill="none" xmlns="http://www.w3.org/2000/svg">
<path d="M27.0072 89.9155H62.3851V110.738H0V0H27.0072V89.9155Z" fill="#F4B860"/>
<path d="M163.36 22.7155V110.738H136.352V98.7493C133.615 102.64 129.877 105.795 125.139 108.214C120.506 110.528 115.347 111.685 109.661 111.685C102.922 111.685 96.9733 110.212 91.8141 107.268C86.6548 104.218 82.6537 99.8535 79.8108 94.1746C76.968 88.4958 75.5465 81.8178 75.5465 74.1408V22.7155H102.396V70.5127C102.396 76.4019 103.923 80.9765 106.976 84.2366C110.029 87.4967 114.136 89.1268 119.295 89.1268C124.56 89.1268 128.719 87.4967 131.772 84.2366C134.826 80.9765 136.352 76.4019 136.352 70.5127V22.7155H163.36Z" fill="#5DB8A1"/>
<path d="M249.33 21.769C260.28 21.769 268.967 25.0817 275.39 31.707C281.918 38.3324 285.182 47.5343 285.182 59.3127V110.738H258.332V62.9408C258.332 57.262 256.806 52.8977 253.752 49.8479C250.804 46.693 246.698 45.1155 241.433 45.1155C236.169 45.1155 232.01 46.693 228.956 49.8479C226.008 52.8977 224.534 57.262 224.534 62.9408V110.738H197.685V62.9408C197.685 57.262 196.158 52.8977 193.104 49.8479C190.156 46.693 186.05 45.1155 180.785 45.1155C175.521 45.1155 171.362 46.693 168.308 49.8479C165.36 52.8977 163.886 57.262 163.886 62.9408V110.738H136.879V22.7155H163.886V33.7577C166.624 30.077 170.203 27.185 174.626 25.0817C179.048 22.8732 184.049 21.769 189.63 21.769C196.263 21.769 202.159 23.1887 207.319 26.0282C212.583 28.8676 216.69 32.9164 219.638 38.1746C222.691 33.3371 226.85 29.3934 232.115 26.3437C237.379 23.2939 243.118 21.769 249.33 21.769Z" fill="#5DB8A1"/>
<path d="M299.975 66.569C299.975 57.5249 301.66 49.585 305.029 42.7493C308.504 35.9136 313.189 30.6554 319.085 26.9746C324.982 23.2939 331.562 21.4535 338.828 21.4535C345.04 21.4535 350.462 22.7155 355.095 25.2394C359.833 27.7634 363.466 31.0761 365.993 35.1775V22.7155H393V110.738H365.993V98.2761C363.36 102.377 359.675 105.69 354.937 108.214C350.304 110.738 344.882 112 338.67 112C331.51 112 324.982 110.16 319.085 106.479C313.189 102.693 308.504 97.3822 305.029 90.5465C301.66 83.6056 299.975 75.6132 299.975 66.569ZM365.993 66.7268C365.993 59.9962 364.098 54.6854 360.307 50.7944C356.622 46.9033 352.094 44.9577 346.724 44.9577C341.355 44.9577 336.774 46.9033 332.984 50.7944C329.299 54.5803 327.456 59.8385 327.456 66.569C327.456 73.2995 329.299 78.6629 332.984 82.6592C336.774 86.5502 341.355 88.4958 346.724 88.4958C352.094 88.4958 356.622 86.5502 360.307 82.6592C364.098 78.7681 365.993 73.4573 365.993 66.7268Z" fill="#5DB8A1"/>
</svg>
